<?xml version="1.0" standalone="no"?>
<!DOCTYPE svg PUBLIC "-//W3C//DTD SVG 20010904//EN"
 "http://www.w3.org/TR/2001/REC-SVG-20010904/DTD/svg10.dtd">
<svg version="1.0" xmlns="http://www.w3.org/2000/svg"
 width="1000.000000pt" height="1000.000000pt" viewBox="0 0 1000.000000 1000.000000"
 preserveAspectRatio="xMidYMid meet">
<metadata>
Created by potrace 1.14, written by Peter Selinger 2001-2017
</metadata>
<g transform="translate(0.000000,1000.000000) scale(0.100000,-0.100000)"
fill="#000000" stroke="none">
<path d="M2970 8930 c-391 -28 -780 -177 -1102 -422 -106 -80 -296 -270 -376
-376 -215 -283 -347 -594 -409 -967 -17 -104 -18 -222 -18 -2165 0 -1943 1
-2061 18 -2165 62 -373 194 -684 409 -967 80 -106 270 -296 376 -376 283 -215
592 -346 967 -409 104 -17 217 -18 2165 -18 1948 0 2061 1 2165 18 241 41 435
102 627 198 217 109 366 217 538 389 321 321 507 691 587 1165 17 104 18 217
18 2165 0 1948 -1 2061 -18 2165 -52 307 -145 561 -297 806 -154 248 -401 495
-649 649 -237 147 -471 236 -776 293 -109 20 -136 20 -2115 22 -1103 1 -2052
-1 -2110 -5z m4132 -385 c750 -103 1340 -693 1443 -1443 13 -99 15 -362 15
-2102 0 -1740 -2 -2003 -15 -2102 -103 -750 -693 -1340 -1443 -1443 -99 -13
-362 -15 -2102 -15 -1740 0 -2003 2 -2102 15 -750 103 -1340 693 -1443 1443
-13 99 -15 362 -15 2102 0 1740 2 2003 15 2102 102 740 676 1324 1415 1438
107 17 248 18 2117 19 1755 1 2016 -1 2115 -14z"/>
<path d="M5316 7289 c-146 -19 -331 -104 -441 -202 -99 -88 -230 -263 -346
-462 l-64 -110 -3 343 -2 342 -340 0 -340 0 0 -2250 0 -2250 380 0 380 0 0
1244 c0 774 4 1293 10 1373 21 248 78 532 142 692 81 205 205 342 392 430 125
60 203 75 359 68 156 -6 256 -31 414 -107 88 -42 102 -46 108 -32 4 10 63 167
131 351 95 254 121 337 112 343 -49 32 -188 102 -267 133 -227 90 -425 119
-625 94z"/>
<path d="M5688 3486 c-139 -40 -229 -143 -259 -294 -22 -116 5 -260 66 -343
37 -50 99 -95 163 -120 83 -32 243 -32 325 0 80 31 136 77 175 141 47 78 57
121 56 240 0 84 -5 116 -23 162 -31 79 -98 150 -177 189 -60 30 -76 33 -172
36 -69 1 -124 -2 -154 -11z m181 -191 c17 -8 38 -34 51 -59 29 -61 31 -194 2
-258 -23 -52 -40 -67 -85 -75 -83 -13 -137 62 -138 190 -1 94 13 146 48 179
45 41 76 47 122 23z"/>
</g>
</svg>
